<svg xmlns="http://www.w3.org/2000/svg" version="1.1" xmlns:xlink="http://www.w3.org/1999/xlink" xmlns:svgjs="http://svgjs.dev/svgjs" width="1440" height="560" preserveAspectRatio="none" viewBox="0 0 1440 560"><g mask="url(&quot;#SvgjsMask1004&quot;)" fill="none"><rect width="1440" height="560" x="0" y="0" fill="rgba(229, 229, 229, 1)"></rect><path d="M636.54 669.41C757.16 626.6 682.28 285.61 954.6 268.22 1226.92 250.83 1428.47 140.06 1590.73 139.42" stroke="rgba(0, 0, 0, 0.58)" stroke-width="2"></path><path d="M360.97 669.04C469.12 662.03 432.97 466.39 739.42 457.58 1045.86 448.77 1296.9 208.86 1496.31 205.58" stroke="rgba(0, 0, 0, 0.58)" stroke-width="2"></path><path d="M333.71 639.45C426.94 639.44 417.14 620.19 705.98 617.69 994.82 615.19 1252.19 347.61 1450.52 343.29" stroke="rgba(0, 0, 0, 0.58)" stroke-width="2"></path><path d="M306.08 564.56C493.79 551.04 604.82 195.66 956.33 185.29 1307.84 174.92 1439.36 29.59 1606.58 28.49" stroke="rgba(0, 0, 0, 0.58)" stroke-width="2"></path><path d="M632.73 601.93C721.9 599.19 694.53 472.41 961.94 464.26 1229.36 456.11 1442.12 195.28 1620.37 189.86" stroke="rgba(0, 0, 0, 0.58)" stroke-width="2"></path></g><defs><mask id="SvgjsMask1004"><rect width="1440" height="560" fill="#ffffff"></rect></mask></defs></svg>