<svg xmlns="http://www.w3.org/2000/svg" version="1.1" xmlns:xlink="http://www.w3.org/1999/xlink" xmlns:svgjs="http://svgjs.dev/svgjs" width="1920" height="1080" preserveAspectRatio="none" viewBox="0 0 1920 1080"><g mask="url(&quot;#SvgjsMask1037&quot;)" fill="none"><rect width="1920" height="1080" x="0" y="0" fill="rgba(15, 15, 15, 1)"></rect><path d="M1073.51 1291.86C1302.69 1178.94 1324.32 443.64 1626.93 432.73 1929.54 421.82 2015.1 783.74 2180.35 799.93" stroke="rgba(248, 248, 248, 1)" stroke-width="2"></path><path d="M418.08 1208.34C646.88 1185.48 750.22 721.7 1182.51 696.87 1614.8 672.04 1741.49 399.9 1946.94 394.47" stroke="rgba(248, 248, 248, 1)" stroke-width="2"></path><path d="M606.6 1287.92C893.49 1223.57 1003.32 473.53 1447.49 465.7 1891.67 457.87 2069.2 711.52 2288.39 714.1" stroke="rgba(248, 248, 248, 1)" stroke-width="2"></path><path d="M389.72 1129.3C634.85 1110.72 768.15 645.65 1234.55 626.14 1700.95 606.63 1855.98 338.6 2079.38 334.54" stroke="rgba(248, 248, 248, 1)" stroke-width="2"></path><path d="M998 1091.52C1171.78 1009.58 1031.01 499.02 1422.81 451.08 1814.61 403.14 2047.9 163.5 2272.43 159.48" stroke="rgba(248, 248, 248, 1)" stroke-width="2"></path></g><defs><mask id="SvgjsMask1037"><rect width="1920" height="1080" fill="#ffffff"></rect></mask></defs></svg>